<?xml version="1.0" encoding="utf-8"?>
<!-- Generator: Adobe Illustrator 25.0.1, SVG Export Plug-In . SVG Version: 6.00 Build 0)  -->
<svg version="1.1" id="Layer_1" xmlns="http://www.w3.org/2000/svg" xmlns:xlink="http://www.w3.org/1999/xlink" x="0px" y="0px"
	 viewBox="0 0 1920 1080" style="enable-background:new 0 0 1920 1080;" xml:space="preserve">
<style type="text/css">
	.st0{fill:#F8F4EA;}
	.st1{fill:#87B272;}
	.st2{fill:#526D45;}
	.st3{fill:#ED976B;}
	.st4{fill:#C16E49;}
	.st5{opacity:0.1;fill:#231F20;}
	.st6{fill:#F9E0D7;}
</style>
<rect class="st0" width="1920" height="1080"/>
<rect x="1180.8" y="532.6" class="st1" width="4" height="56.5"/>
<g>
	<path class="st1" d="M664,541.3c0,27.3-12.3,51.7-31.6,68.1l0,0c-19.3-16.3-31.6-40.7-31.6-68.1c0-27.3,12.3-51.7,31.6-68l0,0
		C651.7,489.6,664,514,664,541.3z"/>
	<path class="st1" d="M664,541.3c0,27.3-12.3,51.7-31.6,68.1l0,0c-19.3-16.3-31.6-40.7-31.6-68.1c0-27.3,12.3-51.7,31.6-68l0,0
		C651.7,489.6,664,514,664,541.3z"/>
	<path class="st2" d="M664,541.3c0,27.3-12.3,51.7-31.6,68.1l0,0V473.2l0,0C651.7,489.6,664,514,664,541.3z"/>
</g>
<g>
	<path class="st1" d="M631.1,548.1c10.6,21.2,10.6,45,1.9,65.2l0,0c-21.4-5.1-40.4-19.3-51.1-40.5c-10.6-21.2-10.6-45-1.9-65.2l0,0
		C601.4,512.7,620.4,526.9,631.1,548.1z"/>
	<path class="st1" d="M631.1,548.1c10.6,21.2,10.6,45,1.9,65.2l0,0c-21.4-5.1-40.4-19.3-51.1-40.5c-10.6-21.2-10.6-45-1.9-65.2l0,0
		C601.4,512.7,620.4,526.9,631.1,548.1z"/>
	<path class="st2" d="M631.1,548.1c10.6,21.2,10.6,45,1.9,65.2l0,0l-53-105.7l0,0C601.4,512.7,620.4,526.9,631.1,548.1z"/>
</g>
<g>
	<path class="st1" d="M686,572.5c-9.5,21.7-27.8,36.9-48.9,43.2l0,0c-9.7-19.7-11-43.5-1.5-65.2c9.5-21.7,27.8-36.9,48.9-43.2l0,0
		C694.3,527,695.6,550.7,686,572.5z"/>
	<path class="st1" d="M686,572.5c-9.5,21.7-27.8,36.9-48.9,43.2l0,0c-9.7-19.7-11-43.5-1.5-65.2c9.5-21.7,27.8-36.9,48.9-43.2l0,0
		C694.3,527,695.6,550.7,686,572.5z"/>
	<path class="st2" d="M686,572.5c-9.5,21.7-27.8,36.9-48.9,43.2l0,0l47.4-108.4l0,0C694.3,527,695.6,550.7,686,572.5z"/>
</g>
<g>
	<path class="st3" d="M686.6,606l-0.5,4.9l-8.2,85.7c-0.5,5.5-5.1,9.7-10.6,9.7h-69.8c-5.5,0-10.1-4.2-10.6-9.7l-8.2-85.7l-0.5-4.9
		H686.6z"/>
	<path class="st3" d="M699.1,589.6V601c0,2.8-2.2,5-5,5H570.6c-2.8,0-5-2.2-5-5v-11.4c0-2.8,2.2-5,5-5h123.5
		C696.8,584.6,699.1,586.9,699.1,589.6z"/>
	<polygon class="st4" points="686.6,606 686.1,611 578.5,611 578.1,606 	"/>
	<path class="st5" d="M699.1,589.6V601c0,2.8-2.2,5-5,5h-7.5l-0.5,4.9l-8.2,85.7c-0.5,5.5-5.1,9.7-10.6,9.7h-34.9V584.6h61.7
		C696.8,584.6,699.1,586.9,699.1,589.6z"/>
</g>
<g>
	<path class="st1" d="M927.9,523.8c0,33.5-9.5,63.6-24.4,83.6l0,0c-14.9-20-24.4-50-24.4-83.6c0-33.5,9.5-63.5,24.4-83.6l0,0
		C918.5,460.2,927.9,490.2,927.9,523.8z"/>
	<path class="st1" d="M927.9,523.8c0,33.5-9.5,63.6-24.4,83.6l0,0c-14.9-20-24.4-50-24.4-83.6c0-33.5,9.5-63.5,24.4-83.6l0,0
		C918.5,460.2,927.9,490.2,927.9,523.8z"/>
	<path class="st2" d="M927.9,523.8c0,33.5-9.5,63.6-24.4,83.6l0,0V440.2l0,0C918.5,460.2,927.9,490.2,927.9,523.8z"/>
</g>
<g>
	<path class="st1" d="M902.6,532.2c8.2,26.1,8.2,55.3,1.5,80.1l0,0c-16.5-6.3-31.2-23.7-39.4-49.8c-8.2-26.1-8.2-55.2-1.5-80.1l0,0
		C879.7,488.7,894.4,506.1,902.6,532.2z"/>
	<path class="st1" d="M902.6,532.2c8.2,26.1,8.2,55.3,1.5,80.1l0,0c-16.5-6.3-31.2-23.7-39.4-49.8c-8.2-26.1-8.2-55.2-1.5-80.1l0,0
		C879.7,488.7,894.4,506.1,902.6,532.2z"/>
	<path class="st2" d="M902.6,532.2c8.2,26.1,8.2,55.3,1.5,80.1l0,0l-40.9-129.9l0,0C879.7,488.7,894.4,506.1,902.6,532.2z"/>
</g>
<g>
	<path class="st1" d="M945,562.1c-7.3,26.7-21.4,45.4-37.7,53.1l0,0c-7.5-24.2-8.5-53.4-1.1-80.1c7.3-26.7,21.5-45.3,37.7-53l0,0
		C951.3,506.2,952.3,535.4,945,562.1z"/>
	<path class="st1" d="M945,562.1c-7.3,26.7-21.4,45.4-37.7,53.1l0,0c-7.5-24.2-8.5-53.4-1.1-80.1c7.3-26.7,21.5-45.3,37.7-53l0,0
		C951.3,506.2,952.3,535.4,945,562.1z"/>
	<path class="st2" d="M945,562.1c-7.3,26.7-21.4,45.4-37.7,53.1l0,0L943.8,482l0,0C951.3,506.2,952.3,535.4,945,562.1z"/>
</g>
<g>
	<path class="st3" d="M984.9,648.4c0,22.8-19.5,43.3-34.8,57.9h-90.3c-15.3-14.6-34.8-35.1-34.8-57.9c0-9.1,1.5-17.9,4.4-26.1
		c1.7-4.8,3.8-9.4,6.3-13.8c5.4-9.3,12.6-17.4,21.1-23.9h96.4c8.5,6.5,15.7,14.6,21.1,23.9c2.5,4.3,4.6,9,6.3,13.8
		C983.4,630.5,984.9,639.3,984.9,648.4z"/>
	<path class="st6" d="M980.6,622.3H829.4l6.3-13.8h138.6C976.8,612.9,978.9,617.5,980.6,622.3z"/>
	<path class="st5" d="M984.9,648.4c0,22.8-19.5,43.3-34.8,57.9H905V584.6h48.2c8.5,6.5,15.7,14.6,21.1,23.9c2.5,4.3,4.6,9,6.3,13.8
		C983.4,630.5,984.9,639.3,984.9,648.4z"/>
</g>
<path class="st3" d="M1238.1,606l-0.5,4.9l-8.2,85.7c-0.5,5.5-5.1,9.7-10.6,9.7h-69.8c-5.5,0-10.1-4.2-10.6-9.7L1130,611l-0.5-4.9
	H1238.1z"/>
<path class="st3" d="M1250.5,589.6V601c0,2.8-2.2,5-5,5h-123.5c-2.8,0-5-2.2-5-5v-11.4c0-2.8,2.2-5,5-5h123.5
	C1248.3,584.6,1250.5,586.9,1250.5,589.6z"/>
<polygon class="st4" points="1238.1,606 1237.6,611 1130,611 1129.6,606 "/>
<path class="st5" d="M1250.5,589.6V601c0,2.8-2.2,5-5,5h-7.5l-0.5,4.9l-8.2,85.7c-0.5,5.5-5.1,9.7-10.6,9.7h-34.9V584.6h61.7
	C1248.3,584.6,1250.5,586.9,1250.5,589.6z"/>
<g>
	<path class="st1" d="M1199.5,524.1c-5.2,6.2-12.1,9.9-18.7,10.6l0,0c-0.4-6.6,2-14.1,7.2-20.3c5.2-6.2,12.1-9.9,18.7-10.6l0,0
		C1207.2,510.5,1204.7,517.9,1199.5,524.1z"/>
	<path class="st1" d="M1199.5,524.1c-5.2,6.2-12.1,9.9-18.7,10.6l0,0c-0.4-6.6,2-14.1,7.2-20.3c5.2-6.2,12.1-9.9,18.7-10.6l0,0
		C1207.2,510.5,1204.7,517.9,1199.5,524.1z"/>
	<path class="st2" d="M1199.5,524.1c-5.2,6.2-12.1,9.9-18.7,10.6l0,0l25.9-30.9l0,0C1207.2,510.5,1204.7,517.9,1199.5,524.1z"/>
</g>
<g>
	<path class="st1" d="M1165.1,560.4c5.3,6.3,12.2,10.2,18.6,11.2l0,0c0.1-6.6-2.5-14-7.8-20.3c-5.3-6.3-12.2-10.2-18.6-11.2l0,0
		C1157.2,546.7,1159.8,554.1,1165.1,560.4z"/>
	<path class="st1" d="M1165.1,560.4c5.3,6.3,12.2,10.2,18.6,11.2l0,0c0.1-6.6-2.5-14-7.8-20.3c-5.3-6.3-12.2-10.2-18.6-11.2l0,0
		C1157.2,546.7,1159.8,554.1,1165.1,560.4z"/>
	<path class="st2" d="M1165.1,560.4c5.3,6.3,12.2,10.2,18.6,11.2l0,0l-26.4-31.5l0,0C1157.2,546.7,1159.8,554.1,1165.1,560.4z"/>
</g>
</svg>
